<svg xmlns="http://www.w3.org/2000/svg" version="1.1" xmlnsXlink="http://www.w3.org/1999/xlink" xmlnsSvgjs="http://svgjs.dev/svgjs" width="1500" height="1500" viewBox="0 0 1500 1500"><rect width="1500" height="1500" fill="#7ea244"></rect><g transform="matrix(0.6666666666666666,0,0,0.6666666666666666,249.39393939393938,438.5856950067477)"><svg viewBox="0 0 396 247" data-background-color="#7ea244" preserveAspectRatio="xMidYMid meet" height="935" width="1500" xmlns="http://www.w3.org/2000/svg" xmlnsXlink="http://www.w3.org/1999/xlink"><g id="tight-bounds" transform="matrix(1,0,0,1,0.2400000000000091,-0.09999999999999432)"><svg viewBox="0 0 395.52 247.2" height="247.2" width="395.52"><g><svg></svg></g><g><svg viewBox="0 0 395.52 247.2" height="247.2" width="395.52"><g transform="matrix(1,0,0,1,75.54432000000001,86.00367300994276)"><svg viewBox="0 0 244.43135999999996 75.19265398011449" height="75.19265398011449" width="244.43135999999996"><g><svg viewBox="0 0 244.43135999999996 75.19265398011449" height="75.19265398011449" width="244.43135999999996"><g><svg viewBox="0 0 244.43135999999996 75.19265398011449" height="75.19265398011449" width="244.43135999999996"><g><svg viewBox="0 0 244.43135999999996 75.19265398011449" height="75.19265398011449" width="244.43135999999996"><g id="textblocktransform"><svg viewBox="0 0 244.43135999999996 75.19265398011449" height="75.19265398011449" width="244.43135999999996" id="textblock"><g><svg viewBox="0 0 244.43135999999996 75.19265398011449" height="75.19265398011449" width="244.43135999999996"><g transform="matrix(1,0,0,1,0,0)"><svg width="244.43135999999996" viewBox="3.85 -38.05 165.94 51.05" height="75.19265398011449" data-palette-color="#f4f7ed"><path d="M8.4-22.35Q9.75-24.7 12.43-26.28 15.1-27.85 18.65-27.85L18.65-27.85Q22.3-27.85 25.28-26.1 28.25-24.35 29.95-21.18 31.65-18 31.65-13.8L31.65-13.8Q31.65-9.65 29.95-6.4 28.25-3.15 25.28-1.35 22.3 0.45 18.65 0.45L18.65 0.45Q15.15 0.45 12.48-1.13 9.8-2.7 8.4-5.05L8.4-5.05 8.4 13 3.85 13 3.85-27.4 8.4-27.4 8.4-22.35ZM27-13.8Q27-16.9 25.75-19.2 24.5-21.5 22.38-22.7 20.25-23.9 17.7-23.9L17.7-23.9Q15.2-23.9 13.08-22.68 10.95-21.45 9.68-19.13 8.4-16.8 8.4-13.75L8.4-13.75Q8.4-10.65 9.68-8.33 10.95-6 13.08-4.78 15.2-3.55 17.7-3.55L17.7-3.55Q20.25-3.55 22.38-4.78 24.5-6 25.75-8.33 27-10.65 27-13.8L27-13.8ZM62.65-14.75Q62.65-13.45 62.5-12L62.5-12 40.6-12Q40.85-7.95 43.37-5.68 45.9-3.4 49.5-3.4L49.5-3.4Q52.45-3.4 54.42-4.78 56.4-6.15 57.2-8.45L57.2-8.45 62.1-8.45Q61-4.5 57.7-2.02 54.4 0.45 49.5 0.45L49.5 0.45Q45.6 0.45 42.52-1.3 39.45-3.05 37.7-6.28 35.95-9.5 35.95-13.75L35.95-13.75Q35.95-18 37.65-21.2 39.35-24.4 42.42-26.13 45.5-27.85 49.5-27.85L49.5-27.85Q53.4-27.85 56.4-26.15 59.4-24.45 61.02-21.48 62.65-18.5 62.65-14.75L62.65-14.75ZM57.95-15.7Q57.95-18.3 56.8-20.18 55.65-22.05 53.67-23.03 51.7-24 49.3-24L49.3-24Q45.85-24 43.42-21.8 41-19.6 40.65-15.7L40.65-15.7 57.95-15.7ZM68.65-37L73.2-37 73.2 0 68.65 0 68.65-37ZM100.69-27.4L105.24-27.4 105.24 0 100.69 0 100.69-4.05Q99.39-1.95 97.07-0.78 94.74 0.4 91.94 0.4L91.94 0.4Q88.74 0.4 86.19-0.93 83.64-2.25 82.17-4.9 80.69-7.55 80.69-11.35L80.69-11.35 80.69-27.4 85.19-27.4 85.19-11.95Q85.19-7.9 87.24-5.73 89.29-3.55 92.84-3.55L92.84-3.55Q96.49-3.55 98.59-5.8 100.69-8.05 100.69-12.35L100.69-12.35 100.69-27.4ZM145.89-27.9Q149.09-27.9 151.59-26.58 154.09-25.25 155.54-22.6 156.99-19.95 156.99-16.15L156.99-16.15 156.99 0 152.49 0 152.49-15.5Q152.49-19.6 150.47-21.78 148.44-23.95 144.99-23.95L144.99-23.95Q141.44-23.95 139.34-21.68 137.24-19.4 137.24-15.1L137.24-15.1 137.24 0 132.74 0 132.74-15.5Q132.74-19.6 130.72-21.78 128.69-23.95 125.24-23.95L125.24-23.95Q121.69-23.95 119.59-21.68 117.49-19.4 117.49-15.1L117.49-15.1 117.49 0 112.94 0 112.94-27.4 117.49-27.4 117.49-23.45Q118.84-25.6 121.12-26.75 123.39-27.9 126.14-27.9L126.14-27.9Q129.59-27.9 132.24-26.35 134.89-24.8 136.19-21.8L136.19-21.8Q137.34-24.7 139.99-26.3 142.64-27.9 145.89-27.9L145.89-27.9ZM166.79-31.85Q165.49-31.85 164.59-32.75 163.69-33.65 163.69-34.95L163.69-34.95Q163.69-36.25 164.59-37.15 165.49-38.05 166.79-38.05L166.79-38.05Q168.04-38.05 168.91-37.15 169.79-36.25 169.79-34.95L169.79-34.95Q169.79-33.65 168.91-32.75 168.04-31.85 166.79-31.85L166.79-31.85ZM164.44-27.4L168.99-27.4 168.99 0 164.44 0 164.44-27.4Z" opacity="1" transform="matrix(1,0,0,1,0,0)" fill="#f4f7ed" class="wordmark-text-0" data-fill-palette-color="primary" id="text-0"></path></svg></g></svg></g></svg></g></svg></g></svg></g></svg></g></svg></g><path d="M186.07 80.004L186.07 24.021 385.228 24.021 385.228 223.179 186.07 223.179 186.07 167.196 192.851 167.196 192.851 216.398 378.447 216.398 378.447 30.802 192.851 30.802 192.851 80.004Z" fill="#f4f7ed" stroke="transparent" data-fill-palette-color="tertiary"></path></svg></g><defs></defs></svg><rect width="395.52" height="247.2" fill="none" stroke="none" visibility="hidden"></rect></g></svg></g></svg>